<svg xmlns="http://www.w3.org/2000/svg" xmlns:xlink="http://www.w3.org/1999/xlink" viewBox="0 0 177.9 63.25"><defs><style>.cls-1{fill:url(#Degradado_sin_nombre_2);}</style><linearGradient id="Degradado_sin_nombre_2" y1="31.62" x2="62.1" y2="31.62" gradientUnits="userSpaceOnUse"><stop offset="0.01" stop-color="#009cde"/><stop offset="1" stop-color="#0068a3"/></linearGradient></defs><g id="Layer_2" data-name="Layer 2"><g id="Capa_1" data-name="Capa 1"><path class="cls-1" d="M61.19,40.77c-.94-.58-2.32-.11-3.36,1a.21.21,0,0,0-.12.11s0,0,0,.05a4.85,4.85,0,0,0-.46.63q-.18.31-.33.63c-2.33,3.12-7.82,7.38-8.08,7.57a30.29,30.29,0,0,1-8.37,4.43,30.94,30.94,0,0,1-10.06,1.66q-10.86,0-17.33-6.28T6.59,33.76A29.32,29.32,0,0,1,9.27,21.28a25.81,25.81,0,0,1,7.61-9.6,23.66,23.66,0,0,1,7.33-3.83,28.65,28.65,0,0,1,8.73-1.27q9.16,0,14.89,5.28a15.31,15.31,0,0,1,1.26,1.29H16.64V18H34.57V52.2h5.06V18H52.17a19.66,19.66,0,0,1,1.38,7.46,20.89,20.89,0,0,1-3.3,11.74q-3.3,5-7.66,5a2,2,0,0,1-1.5-.51l0,6.59a17.59,17.59,0,0,0,6-.78,15.87,15.87,0,0,0,4.9-3A23,23,0,0,0,58,36.17a27.14,27.14,0,0,0,2.08-10.74,27.75,27.75,0,0,0-1-7.39h2.49V13.15H57.15a25,25,0,0,0-5.68-6.92,24.39,24.39,0,0,0-8.28-4.62A31.76,31.76,0,0,0,33,0,33.25,33.25,0,0,0,18.11,3.32,31.34,31.34,0,0,0,6.66,13.05a32.65,32.65,0,0,0-5,9.7A36.67,36.67,0,0,0,0,34,31.18,31.18,0,0,0,2.45,46.61,27.51,27.51,0,0,0,19.1,61.53a35.78,35.78,0,0,0,11.29,1.72,33.33,33.33,0,0,0,11.59-2,35.8,35.8,0,0,0,9.92-5.67c.25-.2,7.44-6.13,9-9.83a5.26,5.26,0,0,0,.43-.59C62.4,43.42,62.33,41.48,61.19,40.77Z"/><path d="M99.84,18.25H93.06V35.92H88.92V18.25H82.11V14.62H99.84Z"/><path d="M117.3,32.29v3.63H102.51V14.62H117v3.63H106.65v5.13h9v3.36h-9v5.55Z"/><path d="M134.91,33.52a7.66,7.66,0,0,1-5.67,2.55,8.47,8.47,0,0,1-3.84-.9,10.26,10.26,0,0,1-3.14-2.41,11.53,11.53,0,0,1-2.1-3.5,11.3,11.3,0,0,1-.76-4.11,11.09,11.09,0,0,1,.76-4.12,10.59,10.59,0,0,1,2.13-3.39,10.29,10.29,0,0,1,3.21-2.31,10.15,10.15,0,0,1,9,.4,8.09,8.09,0,0,1,3.12,3.39l-3.09,2.28A5.74,5.74,0,0,0,132.37,19a5.62,5.62,0,0,0-3-.84,5,5,0,0,0-2.39.57,5.52,5.52,0,0,0-1.81,1.56A7.68,7.68,0,0,0,124,22.54a8.76,8.76,0,0,0-.42,2.73,8.58,8.58,0,0,0,.45,2.81,7,7,0,0,0,1.26,2.26,6.05,6.05,0,0,0,1.9,1.52,5.28,5.28,0,0,0,2.42.55,6.81,6.81,0,0,0,5.31-2.91V28h-4.29V25h7.71v11h-3.42Z"/><path d="M154.62,20.2a5.23,5.23,0,0,0-.77-.57,9.31,9.31,0,0,0-1.35-.7,11.56,11.56,0,0,0-1.72-.59,7.53,7.53,0,0,0-1.89-.24,4.24,4.24,0,0,0-2.55.63,2.08,2.08,0,0,0-.84,1.77,1.83,1.83,0,0,0,.31,1.1,2.73,2.73,0,0,0,.92.76,7.64,7.64,0,0,0,1.51.6c.61.18,1.32.37,2.12.57,1,.28,2,.58,2.83.9a7.68,7.68,0,0,1,2.16,1.2,5,5,0,0,1,1.37,1.73,5.7,5.7,0,0,1,.48,2.47,6.18,6.18,0,0,1-.65,2.93,5.44,5.44,0,0,1-1.72,2,7.4,7.4,0,0,1-2.52,1.1,12.83,12.83,0,0,1-3,.34,16,16,0,0,1-4.74-.72,14.63,14.63,0,0,1-4.2-2l1.83-3.57a5.65,5.65,0,0,0,1,.71,15,15,0,0,0,1.67.87,13,13,0,0,0,2.13.73,9.62,9.62,0,0,0,2.4.3q3.42,0,3.42-2.19a1.84,1.84,0,0,0-.39-1.2,3.31,3.31,0,0,0-1.11-.84,10.63,10.63,0,0,0-1.74-.66q-1-.3-2.28-.63a19.5,19.5,0,0,1-2.66-.91,7.19,7.19,0,0,1-1.87-1.16,4.23,4.23,0,0,1-1.13-1.56,5.52,5.52,0,0,1-.37-2.13,6.62,6.62,0,0,1,.6-2.88,5.81,5.81,0,0,1,1.66-2.1A7.56,7.56,0,0,1,146,14.91a10.23,10.23,0,0,1,3-.44,11.76,11.76,0,0,1,4.14.71,15.41,15.41,0,0,1,3.3,1.66Z"/><path d="M157.77,35.92l8.4-21.3h3.36l8.37,21.3h-4.38l-2-5.31H164.1l-1.95,5.31Zm10.08-16.83-3.06,8.61h6Z"/><path d="M82.11,48.72l3.14-7.5h.6L89,48.72h-.8l-1-2.35H83.85l-1,2.35Zm3.44-6.63L84,45.79h3Z"/><path d="M94.68,48.72v-7.5h3.16a2,2,0,0,1,.9.21,2.32,2.32,0,0,1,.71.53,2.81,2.81,0,0,1,.46.76,2.48,2.48,0,0,1,0,1.64,2.31,2.31,0,0,1-.35.68,1.9,1.9,0,0,1-1.21.79l1.85,2.89H99.4L97.63,46H95.41v2.77Zm.73-3.42h2.46a1.21,1.21,0,0,0,.6-.15,1.4,1.4,0,0,0,.46-.38,1.81,1.81,0,0,0,.29-.55,2,2,0,0,0,.11-.65,1.73,1.73,0,0,0-.12-.64,1.79,1.79,0,0,0-.33-.55A1.72,1.72,0,0,0,98.4,42a1.38,1.38,0,0,0-.59-.14h-2.4Z"/><path d="M111.84,47.63a3.19,3.19,0,0,1-2.4,1.14,3.13,3.13,0,0,1-1.4-.32,3.63,3.63,0,0,1-1.11-.87,4.08,4.08,0,0,1-.73-1.22,3.79,3.79,0,0,1-.27-1.4,4.13,4.13,0,0,1,.26-1.44,3.78,3.78,0,0,1,.72-1.21,3.47,3.47,0,0,1,1.1-.83,3.11,3.11,0,0,1,1.39-.31,3.92,3.92,0,0,1,1,.12,2.88,2.88,0,0,1,.8.34,2.56,2.56,0,0,1,.62.51,3.3,3.3,0,0,1,.44.66l-.57.38a2.5,2.5,0,0,0-1-1,2.72,2.72,0,0,0-1.34-.33,2.36,2.36,0,0,0-1.13.27,2.62,2.62,0,0,0-.85.7,3.24,3.24,0,0,0-.55,1,3.87,3.87,0,0,0-.19,1.17,3.23,3.23,0,0,0,.22,1.2,3,3,0,0,0,.6,1,2.82,2.82,0,0,0,.89.68,2.45,2.45,0,0,0,1.11.26,2.66,2.66,0,0,0,1.23-.3,3.71,3.71,0,0,0,1.12-1V45.6h-1.66V45h2.29v3.69h-.63Z"/><path d="M123.21,48.07v.65h-5v-7.5h4.94v.65H118.9v2.71h3.67v.62H118.9v2.87Z"/><path d="M129.63,42.59v6.13h-.73v-7.5h.57l5,6.24V41.23h.73v7.49h-.64Z"/><path d="M146.94,41.87h-2.67v6.85h-.74V41.87h-2.67v-.65h6.08Z"/><path d="M152.64,48.72V41.23h.73v7.49Z"/><path d="M159.79,42.59v6.13h-.73v-7.5h.57l5,6.24V41.23h.73v7.49h-.64Z"/><path d="M171,48.72l3.14-7.5h.6l3.14,7.5h-.79l-1-2.35h-3.37l-1,2.35Zm3.45-6.63-1.55,3.7H176Z"/></g></g></svg>